<svg xmlns="http://www.w3.org/2000/svg" viewBox="0 0 240 320" role="img" aria-label="День учителя">
  <rect width="240" height="320" fill="#e8dfd0"/>
  <rect x="22" y="28" width="196" height="232" rx="8" fill="#6b4a2a"/>
  <rect x="34" y="40" width="172" height="188" fill="#2f6b45"/>
  <g fill="none" stroke="#f4f0e4" stroke-width="8" stroke-linecap="round" stroke-linejoin="round">
    <path d="M56 152 L78 80 L100 152"/>
    <path d="M64 124 L92 124"/>
    <path d="M118 80 L118 152"/>
    <path d="M118 80 L146 80"/>
    <path d="M118 116 Q152 116 152 134 Q152 152 118 152"/>
    <path d="M168 80 L168 152"/>
    <path d="M168 80 Q200 96 168 116"/>
    <path d="M168 116 Q204 134 168 152"/>
  </g>
  <rect x="34" y="228" width="172" height="16" fill="#5a3d24"/>
  <rect x="48" y="232" width="52" height="8" rx="3" fill="#f2eee4"/>
  <rect x="160" y="231" width="28" height="10" rx="2" fill="#d9c4a0"/>
</svg>
