<svg xmlns="http://www.w3.org/2000/svg" viewBox="0 0 640 360" role="img">
  <defs>
    <linearGradient id="g5" x1="0" y1="0" x2="1" y2="1">
      <stop offset="0%" stop-color="#1d2a22"/>
      <stop offset="100%" stop-color="#3f5d48"/>
    </linearGradient>
  </defs>
  <rect width="640" height="360" fill="url(#g5)"/>
  <rect x="250" y="210" width="140" height="90" rx="14" fill="#d7c3a3"/>
  <rect x="270" y="190" width="100" height="30" rx="8" fill="#c3ad8b"/>
  <path d="M320 180 C290 140 270 110 285 80 C310 100 330 100 355 80 C370 110 350 140 320 180 Z" fill="#6fa37a"/>
  <path d="M320 180 C305 145 300 120 312 95" stroke="#4f7d5a" stroke-width="4" fill="none"/>
  <ellipse cx="430" cy="150" rx="36" ry="24" fill="#f2e6d8"/>
  <rect x="445" y="150" width="14" height="40" rx="4" fill="#f2e6d8"/>
  <path d="M455 190 C480 210 490 240 470 265" stroke="#c7a17a" stroke-width="12" fill="none" stroke-linecap="round" opacity="0.8"/>
  <ellipse cx="465" cy="270" rx="34" ry="12" fill="#c7a17a" opacity="0.65"/>
  <circle cx="150" cy="90" r="26" fill="#f4efe6" opacity="0.12"/>
</svg>
