<svg xmlns="http://www.w3.org/2000/svg" viewBox="0 0 640 360" role="img">
  <defs>
    <linearGradient id="g1" x1="0" y1="0" x2="1" y2="1">
      <stop offset="0%" stop-color="#1f2a24"/>
      <stop offset="100%" stop-color="#3d5a45"/>
    </linearGradient>
  </defs>
  <rect width="640" height="360" fill="url(#g1)"/>
  <rect x="90" y="110" width="360" height="160" rx="18" fill="#0f1512"/>
  <g fill="#7d9a86">
    <rect x="110" y="130" width="28" height="22" rx="4"/><rect x="148" y="130" width="28" height="22" rx="4"/><rect x="186" y="130" width="28" height="22" rx="4"/><rect x="224" y="130" width="28" height="22" rx="4"/><rect x="262" y="130" width="28" height="22" rx="4"/><rect x="300" y="130" width="28" height="22" rx="4"/><rect x="338" y="130" width="28" height="22" rx="4"/><rect x="376" y="130" width="28" height="22" rx="4"/>
    <rect x="110" y="164" width="28" height="22" rx="4"/><rect x="148" y="164" width="28" height="22" rx="4"/><rect x="186" y="164" width="28" height="22" rx="4"/><rect x="224" y="164" width="28" height="22" rx="4"/><rect x="262" y="164" width="28" height="22" rx="4"/><rect x="300" y="164" width="28" height="22" rx="4"/><rect x="338" y="164" width="28" height="22" rx="4"/><rect x="376" y="164" width="28" height="22" rx="4"/>
    <rect x="128" y="198" width="280" height="28" rx="8"/>
  </g>
  <ellipse cx="430" cy="170" rx="78" ry="62" fill="#e8d5b5"/>
  <circle cx="405" cy="155" r="7" fill="#1f2a24"/><circle cx="450" cy="155" r="7" fill="#1f2a24"/>
  <path d="M415 180 Q430 192 445 180" stroke="#1f2a24" stroke-width="4" fill="none" stroke-linecap="round"/>
  <ellipse cx="372" cy="150" rx="16" ry="22" fill="#e8d5b5"/><ellipse cx="488" cy="150" rx="16" ry="22" fill="#e8d5b5"/>
  <path d="M390 210 Q430 255 470 210" fill="#e8d5b5"/>
  <circle cx="500" cy="95" r="28" fill="#f4efe6" opacity="0.2"/>
</svg>
