<svg xmlns="http://www.w3.org/2000/svg" viewBox="0 0 640 360" role="img">
  <defs>
    <linearGradient id="g18" x1="0" y1="0" x2="1" y2="1">
      <stop offset="0%" stop-color="#1a222c"/>
      <stop offset="100%" stop-color="#2c3a48"/>
    </linearGradient>
  </defs>
  <rect width="640" height="360" fill="url(#g18)"/>
  <ellipse cx="320" cy="312" rx="180" ry="20" fill="#0e141a" opacity="0.4"/>
  <rect x="128" y="54" width="22" height="256" rx="6" fill="#c7a17a"/>
  <rect x="150" y="54" width="156" height="256" rx="8" fill="#e8d5b5"/>
  <rect x="166" y="74" width="124" height="92" rx="8" fill="#efe4d6"/>
  <rect x="166" y="180" width="124" height="106" rx="8" fill="#f2e6d8"/>
  <rect x="276" y="168" width="18" height="52" rx="8" fill="#c7a17a"/>
  <ellipse cx="248" cy="294" rx="92" ry="20" fill="#2b211c"/>
  <ellipse cx="248" cy="290" rx="78" ry="14" fill="#c7a17a"/>
  <path d="M328 88 Q424 44 520 88 Q472 168 424 180 Q376 168 328 88 Z" fill="#e8d5b5"/>
  <path d="M346 96 Q424 62 502 96 Q464 154 424 164 Q384 154 346 96 Z" fill="#f0c36a"/>
  <line x1="424" y1="164" x2="424" y2="276" stroke="#efe4d6" stroke-width="10" stroke-linecap="round"/>
  <path d="M424 276 Q448 280 452 256" stroke="#efe4d6" stroke-width="10" fill="none" stroke-linecap="round"/>
  <ellipse cx="424" cy="294" rx="62" ry="14" fill="#1a222c" opacity="0.72"/>
  <ellipse cx="406" cy="288" rx="18" ry="8" fill="#e8d5b5" opacity="0.22"/>
  <ellipse cx="446" cy="290" rx="14" ry="6" fill="#e8d5b5" opacity="0.18"/>
  <ellipse cx="392" cy="218" rx="5" ry="11" fill="#c7a17a"/>
  <ellipse cx="456" cy="206" rx="5" ry="11" fill="#c7a17a"/>
  <ellipse cx="424" cy="234" rx="4" ry="10" fill="#e8d5b5"/>
  <ellipse cx="442" cy="250" rx="4" ry="9" fill="#e8d5b5"/>
  <circle cx="500" cy="68" r="20" fill="#f4efe6" opacity="0.1"/>
</svg>
