<svg xmlns="http://www.w3.org/2000/svg" viewBox="0 0 640 360" role="img">
  <defs>
    <linearGradient id="g25" x1="0" y1="0" x2="1" y2="1">
      <stop offset="0%" stop-color="#241a28"/>
      <stop offset="100%" stop-color="#3a3554"/>
    </linearGradient>
  </defs>
  <rect width="640" height="360" fill="url(#g25)"/>
  <ellipse cx="320" cy="312" rx="188" ry="20" fill="#140e18" opacity="0.4"/>
  <rect x="128" y="196" width="384" height="108" rx="28" fill="#c7a17a"/>
  <rect x="148" y="228" width="344" height="60" rx="18" fill="#e8d5b5"/>
  <rect x="128" y="168" width="52" height="136" rx="20" fill="#c7a17a"/>
  <rect x="460" y="168" width="52" height="136" rx="20" fill="#c7a17a"/>
  <rect x="176" y="108" width="108" height="100" rx="18" fill="#efe4d6"/>
  <rect x="272" y="96" width="120" height="112" rx="18" fill="#f2e6d8"/>
  <rect x="380" y="110" width="88" height="98" rx="18" fill="#efe4d6"/>
  <g transform="rotate(32 278 198)">
    <rect x="264" y="158" width="28" height="86" rx="7" fill="#c7a17a"/>
    <rect x="270" y="166" width="16" height="18" rx="3" fill="#f0c36a"/>
    <circle cx="278" cy="198" r="4" fill="#f0c36a"/>
    <circle cx="278" cy="214" r="4" fill="#efe4d6"/>
    <circle cx="278" cy="230" r="4" fill="#f0c36a"/>
  </g>
  <circle cx="160" cy="76" r="22" fill="#f4efe6" opacity="0.12"/>
  <circle cx="508" cy="68" r="18" fill="#f4efe6" opacity="0.1"/>
</svg>
