<?xml version="1.0" encoding="UTF-8"?>
<svg xmlns="http://www.w3.org/2000/svg" viewBox="0 0 640 400" width="640" height="400">
  <defs>
    <linearGradient id="sky" x1="0" y1="0" x2="0" y2="1">
      <stop offset="0%" stop-color="#D9E4EC"/>
      <stop offset="100%" stop-color="#E8EEF2"/>
    </linearGradient>
    <linearGradient id="water" x1="0" y1="0" x2="0" y2="1">
      <stop offset="0%" stop-color="#7FA3B5"/>
      <stop offset="55%" stop-color="#5E8496"/>
      <stop offset="100%" stop-color="#4A6D7D"/>
    </linearGradient>
  </defs>
  <rect width="640" height="400" fill="url(#sky)"/>
  <path d="M0 220 L90 150 L160 200 L250 110 L340 190 L430 95 L520 175 L640 130 L640 240 L0 240 Z" fill="#A8B5A8"/>
  <path d="M0 240 L110 175 L190 225 L290 145 L380 210 L470 135 L560 200 L640 160 L640 250 L0 250 Z" fill="#8F9F8F"/>
  <rect y="230" width="640" height="170" fill="url(#water)"/>
  <path d="M0 250 Q160 235 320 248 T640 242 L640 270 Q320 285 0 268 Z" fill="#6B92A4" opacity="0.35"/>
  <path d="M0 290 Q200 275 420 292 T640 286" fill="none" stroke="#E7EEF2" stroke-width="2" opacity="0.25"/>
  <circle cx="520" cy="78" r="28" fill="#F2E8D8" opacity="0.7"/>
</svg>
