<svg xmlns="http://www.w3.org/2000/svg" viewBox="0 0 160 100" fill="none">
  <rect x="28" y="18" width="104" height="68" rx="8" fill="#F3E4DC"/>
  <rect x="28" y="18" width="104" height="68" rx="8" stroke="#E2C9BC" stroke-width="1.5"/>
  <rect x="36" y="26" width="52" height="52" rx="5" fill="#F9F0EB"/>
  <rect x="36" y="26" width="52" height="52" rx="5" stroke="#E8D2C6" stroke-width="1"/>
  <path d="M98 34h24" stroke="#E0C8BB" stroke-width="2" stroke-linecap="round"/>
  <path d="M98 42h20" stroke="#E0C8BB" stroke-width="2" stroke-linecap="round"/>
  <path d="M98 50h16" stroke="#E0C8BB" stroke-width="2" stroke-linecap="round"/>
  <circle cx="62" cy="48" r="7.5" fill="#E8C4B8"/>
  <circle cx="55.5" cy="43" r="5.5" fill="#E2B5A8"/>
  <circle cx="68.5" cy="43" r="5.5" fill="#E2B5A8"/>
  <circle cx="55.5" cy="53" r="5.5" fill="#DEB0A4"/>
  <circle cx="68.5" cy="53" r="5.5" fill="#DEB0A4"/>
  <circle cx="62" cy="48" r="3.8" fill="#C9A07A"/>
  <path d="M52 62c4 6 10 8 16 6" stroke="#B7B19E" stroke-width="1.4" stroke-linecap="round"/>
  <ellipse cx="50" cy="60" rx="4.5" ry="2.2" transform="rotate(-35 50 60)" fill="#C3BEAB"/>
  <ellipse cx="70" cy="66" rx="4.2" ry="2" transform="rotate(25 70 66)" fill="#C3BEAB"/>
</svg>
